<svg xmlns="http://www.w3.org/2000/svg" width="1271.5" height="510" viewBox="0 0 2543 1020">
  <defs>
    <style>
      .cls-1 {
        fill-rule: evenodd;
      }
    </style>
  </defs>
  <path id="C_NCEPT_NULL" data-name="C NCEPT  NULL" class="cls-1" d="M323.371,310.784q-11.41,19.56-31.512,36.945-48.9,41.3-107.575,41.291-65.2-.534-112.464-51.614Q21.827,283.085,21.836,204.3q0-79.318,50.527-133.653,46.72-51.062,111.921-51.071,36.393,0,72.26,17.929,46.721,23.914,66.283,61.937L283.709,119q-6.519-13.039-20.1-25.535-34.776-30.421-79.323-30.425-45.637.548-79.866,36.4Q65.3,141.816,65.3,204.3q0,53.789,30.969,95.079,35.31,46.185,88.015,46.181a115.458,115.458,0,0,0,44.551-9.236q39.118-16.3,56.5-47.268ZM665,389l-29.233.02V19.572h33.142l6.52,9.236L863.413,298.288,863.956,41.3,877,20l30.42-.428V41.3l-0.543,325.983V389.02H873.735l-6.519-9.236L679.232,110.3V367.288Zm620.02-78.216q-11.415,19.56-31.52,36.945-48.885,41.3-107.57,41.291-65.19-.534-112.46-51.614-50-54.321-49.989-133.11,0-79.318,50.529-133.653,46.725-51.062,111.92-51.071,36.39,0,72.26,17.929,46.725,23.914,66.28,61.937L1245.35,119q-6.51-13.039-20.1-25.535-34.77-30.421-79.32-30.425-45.645.548-79.87,36.4-39.105,42.377-39.11,104.858,0,53.789,30.96,95.079,35.31,46.185,88.02,46.181a115.423,115.423,0,0,0,44.55-9.236q39.12-16.3,56.5-47.268ZM1624.58,19.572V63.037H1407.26V182.564h158.65v43.465H1407.26V345.556h217.32V389.02H1363.8V19.572h260.78ZM1711.51,204.3l0.54-162.448V20.116h21.74l138-.543q41.28,0,73.34,26.079,38.025,30.968,38.03,77.693,0,36.405-25.53,65.2-33.15,37.488-85.84,37.488H1754.98V389.02h-43.47V204.3Zm160.28-21.732a75.226,75.226,0,0,0,37.48-9.779q30.42-17.382,30.43-49.441,0-18.463-11.95-34.228-20.115-26.079-55.96-26.079H1754.98v120.07ZM2276.55,19.572h21.73V63.037H2179.3V389.02h-43.47V63.037H2015.76V19.572h260.79ZM97.9,839.02H54.434V469.572H87.576l6.52,9.237L282.079,748.288l0.544-256.983V469.572h43.464v21.733l-0.543,325.983V839.02H292.4l-6.519-9.236L97.9,560.3V839.02Zm326.525-368.9h44.008l-0.544,21.732L467.345,715.69q0,26.626,17.929,48.354,26.079,31.516,69,31.512a90.312,90.312,0,0,0,53.244-16.843q33.681-23.9,33.685-63.023V491.305l0.543-21.189h44.008l-0.543,21.732L684.668,715.69q0,45.637-32.6,81.5-39.118,41.842-97.795,41.834-51.075,0-89.1-33.685-41.3-36.393-41.291-89.645V491.305Zm358.038-.544h43.465V795.556H999.785V839.02H782.462V469.572Zm282.518,0h43.46V795.556H1282.3V839.02H1064.98V469.572Z"/>
  <path id="N" class="cls-1" d="M876,389l29.907,0.02V19.572h-33.1L866.3,28.809,678.58,298.288,678.038,41.3,665,20l-30.366-.428V41.3l0.543,325.983V389.02h33.1l6.511-9.236L862.5,110.3V367.288Z"/>
</svg>
