<svg xmlns="http://www.w3.org/2000/svg" width="8333" height="3125" viewBox="0 0 8333 3125">
  <defs>
    <style>
      .cls-1 {
        fill-rule: evenodd;
      }

      .cls-2 {
        font-size: 1250px;
        font-family: "IBM Plex Sans";
      }
    </style>
  </defs>
  <path id="New_Media_Art" data-name="New Media Art" class="cls-1" d="M1718.81,1342.65h86.49V720.263h-73.11V1238.32h-2.68l-74.9-138.21L1427.24,720.263h-86.5V1342.65h73.12V824.588h2.68l74.9,138.209Zm530.54-18.46q47.25-29.16,69.55-76.71l-50.82-36.8q-17.85,38.355-50.38,58.85-32.565,20.52-76.24,20.51-32.1,0-57.51-10.7a122.1,122.1,0,0,1-42.8-29.43,130.153,130.153,0,0,1-26.75-44.13,157.476,157.476,0,0,1-9.36-54.84v-21.4h330.8v-33.77q0-48.87-13.82-89.74t-39.68-70.638a183.716,183.716,0,0,0-62.41-46.659q-36.57-16.887-82.93-16.886-47.265,0-85.15,16.941a183.673,183.673,0,0,0-65.09,48.6q-27.21,31.662-41.91,76.236-14.715,44.595-14.71,98.98,0,55.29,14.71,99.42t41.91,75.79a183.365,183.365,0,0,0,65.09,48.6q37.89,16.92,85.15,16.94Q2202.085,1353.35,2249.35,1324.19Zm-23.63-355.82q33.45,36.781,33.44,97.92v9.75H2005.04v-6.2q0-30.135,9.8-55.4a135.213,135.213,0,0,1,27.2-43.855,120.225,120.225,0,0,1,41.46-28.8q24.075-10.2,53.5-10.2Q2192.275,931.588,2225.72,968.37Zm298.27,374.28h86.49l64.2-221.14,39.23-139.988h1.78l40.13,139.988,64.2,221.14h88.27l122.16-460.1h-66.87l-49.94,198.843-47.25,201.52h-1.79l-57.06-201.52-59.75-198.843h-63.3l-57.96,198.843-56.18,201.52h-1.78l-49.04-201.52-49.04-198.843h-69.55Zm1312.53,0h73.12V720.263h-96.3L3634.11,1055.53h-4.46L3451.32,720.263h-99.87V1342.65h73.12v-524.3h4.46l52.61,104.325,148.9,271.068,148.91-271.068,52.61-104.325h4.46v524.3Zm517.17-18.46q47.25-29.16,69.55-76.71l-50.83-36.8q-17.85,38.355-50.38,58.85-32.55,20.52-76.24,20.51-32.1,0-57.51-10.7a122.1,122.1,0,0,1-42.8-29.43,130.153,130.153,0,0,1-26.75-44.13,157.476,157.476,0,0,1-9.36-54.84v-21.4h330.81v-33.77q0-48.87-13.82-89.74-13.845-40.879-39.68-70.638a183.851,183.851,0,0,0-62.42-46.659q-36.57-16.887-82.92-16.886-47.28,0-85.16,16.941a183.762,183.762,0,0,0-65.09,48.6q-27.21,31.662-41.91,76.236-14.715,44.595-14.71,98.98,0,55.29,14.71,99.42t41.91,75.79a183.453,183.453,0,0,0,65.09,48.6q37.89,16.92,85.16,16.94Q4306.41,1353.35,4353.69,1324.19Zm-23.63-355.82q33.435,36.781,33.43,97.92v9.75H4109.37v-6.2q0-30.135,9.81-55.4a135.019,135.019,0,0,1,27.19-43.855,120.359,120.359,0,0,1,41.47-28.8q24.075-10.2,53.5-10.2Q4296.615,931.588,4330.06,968.37Zm522.07,374.28h71.33V682.813h-71.33V956.6h-3.57q-17.85-43.26-52.16-64-34.335-20.731-82.48-20.745-42.8,0-77.58,16.941a168.579,168.579,0,0,0-59.29,48.15q-24.54,31.223-37.45,75.792-12.945,44.6-12.93,99.87,0,55.29,12.93,99.86,12.915,44.61,37.45,75.8a168.361,168.361,0,0,0,59.29,48.15q34.785,16.92,77.58,16.94,92.73,0,134.64-84.75h3.57v74.05Zm-214-90.69q-34.785-38.07-34.78-99.93v-78.86q0-61.845,34.78-99.924t95.41-38.091a155.192,155.192,0,0,1,45.92,6.729q21.84,6.73,37.89,18.363a88.509,88.509,0,0,1,25.42,28.227,70.941,70.941,0,0,1,9.36,35.406v172.06q0,22.41-9.36,39.89a89.628,89.628,0,0,1-25.42,29.56q-16.05,12.1-37.89,18.38a165.737,165.737,0,0,1-45.92,6.27Q4672.895,1290.04,4638.13,1251.96Zm506.02-488.451q10.245-11.139,10.25-28.979V722.938q0-17.826-10.25-28.979t-33.44-11.146q-23.19,0-33.44,11.146t-10.25,28.979V734.53q0,17.847,10.25,28.979,10.245,11.16,33.44,11.146Q5133.885,774.655,5144.15,763.509Zm-69.11,579.141h71.34v-460.1h-71.34v460.1Zm597.42,0v-63.31h-52.61V1026.66q0-72.953-46.36-113.88-46.38-40.92-130.19-40.933-62.415,0-103.43,26.3t-59.74,63.754l42.8,40.125q18.72-31.2,46.81-49.933t70-18.725q55.275,0,82.03,25.858t26.75,74.9v45.48h-90.95q-100.77,0-148.46,34.77-47.715,34.77-47.71,99.87,0,64.2,40.57,101.65t113.69,37.45q48.15,0,82.93-21.4t49.93-64.2h4.46q4.455,32.1,21.84,53.5,17.4,21.39,57.52,21.4h40.12Zm-311.64-68.66q-24.525-18.72-24.52-52.61v-18.72q0-33.885,28.09-51.72t89.61-17.83h94.52v75.79a63.913,63.913,0,0,1-8.92,32.99,88.305,88.305,0,0,1-24.96,26.75q-16.05,11.595-38.34,17.83-22.3,6.255-49.05,6.24Q5385.34,1292.71,5360.82,1273.99Zm1098.98,68.66L6242.24,720.263h-95.41L5929.26,1342.65h75.79L6085,1093h214l82.34,249.65h78.46Zm-159.6-249.67H6085.3l105.22-303.167h4.46Zm327.24,249.67V1030.56q0-32.97,32.54-54.834,32.55-21.838,90.51-21.846h41.91V882.547h-27.65q-56.175,0-88.27,25.858t-44.58,58.85h-4.46V882.547H6556.1v460.1h71.34Zm450.29,0v-63.31H6984.1V945.855h100.76V882.547H6984.1V755.038h-64.2v85.6q0,23.2-8.47,32.546t-31.65,9.363h-42.8v63.308h75.79V1267.02q0,33.81,19.17,54.73,19.17,20.895,56.62,20.9h89.17Z"/>
  <text id="Newsletter" class="cls-2" x="1113.689" y="2487.153">Newsletter</text>
</svg>
